<svg width="96" height="96" viewBox="0 0 96 96" fill="none" xmlns="http://www.w3.org/2000/svg">
<g id="icon-return-reduce">
<g id="Group 225">
<path id="Union" fill-rule="evenodd" clip-rule="evenodd" d="M87.4142 11.4142C88.1953 10.6332 88.1953 9.36683 87.4142 8.58579C86.6332 7.80474 85.3668 7.80474 84.5858 8.58579L8.58579 84.5858C7.80474 85.3668 7.80474 86.6332 8.58579 87.4142C9.36683 88.1953 10.6332 88.1953 11.4142 87.4142L65.8302 32.9983C69.7442 38.0997 72.0572 44.4233 72.0572 51.2571C72.0572 68.0907 58.0223 81.8285 40.595 81.8285C39.4904 81.8285 38.595 82.724 38.595 83.8285C38.595 84.9331 39.4904 85.8285 40.595 85.8285C60.129 85.8285 76.0572 70.4009 76.0572 51.2571C76.0572 43.2972 73.3035 35.9798 68.6817 30.1467L87.4142 11.4142ZM40.595 16.6857C49.1049 16.6857 56.9305 19.6136 63.0529 24.5013L60.2056 27.3485C54.8343 23.1813 48.0228 20.6857 40.595 20.6857C31.8601 20.6857 23.9676 24.1416 18.2718 29.7142H21.943C23.0476 29.7142 23.943 30.6097 23.943 31.7142C23.943 32.8188 23.0476 33.7142 21.943 33.7142H14.2573C12.6005 33.7142 11.2573 32.3711 11.2573 30.7142V23.0285C11.2573 21.924 12.1528 21.0285 13.2573 21.0285C14.3619 21.0285 15.2573 21.924 15.2573 23.0285L15.2573 27.0693C21.698 20.6581 30.6765 16.6857 40.595 16.6857Z" fill="#0F224A"/>
</g>
</g>
</svg>
