<svg width="96" height="96" viewBox="0 0 96 96" fill="none" xmlns="http://www.w3.org/2000/svg">
<g id="icon-gear-turn">
<g id="Group 224">
<g id="Setting">
<g id="Group 272">
<path id="Path_33946 (Stroke)" fill-rule="evenodd" clip-rule="evenodd" d="M50.0385 19.6099C52.2587 19.6091 54.3611 20.5556 55.8744 22.1948C57.3747 23.8199 58.1745 25.9904 58.1248 28.2138C58.1372 28.9498 58.3315 29.6644 58.6821 30.2864L58.6871 30.2953C59.2497 31.3056 60.1522 32.0079 61.1698 32.2861C62.1841 32.5634 63.2655 32.4079 64.1846 31.8378L64.2055 31.8248C68.1355 29.4536 73.0963 30.9249 75.2923 34.9383L77.2724 38.5563C77.3168 38.6374 77.3554 38.7213 77.388 38.8072C79.3689 42.7193 78.1065 47.6468 74.3537 49.9581L74.3378 49.9679C73.7291 50.335 73.2113 50.8745 72.8487 51.5411L72.8418 51.5538C72.2789 52.5711 72.1198 53.7957 72.4117 54.9483C72.7032 56.0994 73.4106 57.0499 74.3411 57.6135C76.2054 58.7429 77.5364 60.5887 78.0756 62.718C78.6145 64.8458 78.3281 67.115 77.2679 69.0311L77.2558 69.0531L75.1653 72.7215C72.953 76.7108 68.0031 78.157 64.0884 75.7846C63.4983 75.43 62.8424 75.2367 62.1772 75.214C61.1371 75.2151 60.1175 75.6496 59.3486 76.4592C58.5707 77.2784 58.1189 78.4123 58.1244 79.6133L58.1245 79.6315C58.1039 84.1619 54.5847 88.0002 50.0385 88.0001H46.0492C41.4912 88.0001 37.9691 84.1435 37.9632 79.6031C37.9545 78.859 37.7598 78.136 37.4056 77.5076L37.3905 77.4803C36.8392 76.4657 35.9445 75.7564 34.9316 75.471C33.9222 75.1866 32.8432 75.3351 31.925 75.8993L31.8946 75.9176C30.0071 77.0317 27.7616 77.313 25.6649 76.6855C23.5781 76.061 21.8447 74.5995 20.8185 72.6609L18.8178 69.0276L18.8158 69.024C16.6535 65.0782 17.8977 59.9888 21.7423 57.6468C23.0007 56.8817 23.8258 55.4293 23.8258 53.805C23.8258 52.1807 23.0023 50.7292 21.7438 49.9641L21.7381 49.9606C17.8936 47.6058 16.6518 42.51 18.8152 38.5564L18.8379 38.516L20.9528 34.8553C23.1549 30.8583 28.1048 29.3967 32.0277 31.7636L32.0544 31.78C32.6262 32.1374 33.2684 32.3255 33.9175 32.3346C36.0479 32.3286 37.9506 30.5001 37.9923 28.0064C37.9875 25.8175 38.8076 23.6965 40.3025 22.1149C41.8055 20.5246 43.8712 19.6098 46.0492 19.6099H50.0385C50.0388 19.6099 50.0382 19.6099 50.0385 19.6099ZM52.9354 24.908C52.1558 24.0637 51.1085 23.6094 50.0394 23.6099L46.0491 23.6099C45.0042 23.6099 43.9799 24.0473 43.2095 24.8625C42.4357 25.6811 41.9868 26.8119 41.9923 28.0091L41.9921 28.0455C41.9308 32.5461 38.4216 36.3351 33.9062 36.3346L33.8845 36.3346C32.4924 36.3194 31.1353 35.9186 29.9501 35.1819C28.0587 34.0489 25.602 34.6917 24.4499 36.7971L24.4272 36.8375L22.3141 40.4951C21.1461 42.6528 21.8831 45.3565 23.8246 46.5479C26.3305 48.0727 27.8258 50.8514 27.8258 53.805C27.8258 56.7591 26.3299 59.5382 23.8233 61.0629C21.882 62.2454 21.1453 64.949 22.3226 67.0998C22.3229 67.1004 22.3233 67.101 22.3236 67.1017L24.3309 70.7469L24.3488 70.7801C24.8936 71.8153 25.7898 72.5476 26.8117 72.8534C27.8255 73.1568 28.9142 73.0274 29.8487 72.4803C31.704 71.3471 33.9266 71.0321 36.0165 71.6209C38.1045 72.2093 39.8516 73.6399 40.8978 75.557C41.5842 76.7803 41.9492 78.1646 41.9631 79.572L41.9633 79.5918C41.9633 82.125 43.8886 84.0001 46.0492 84.0001H50.0385C52.1897 84.0001 54.109 82.1413 54.1244 79.6211C54.117 77.4216 54.9424 75.2902 56.4482 73.7047C57.9597 72.1131 60.0357 71.203 62.2205 71.2141L62.2667 71.2148C63.6387 71.2535 64.9743 71.6492 66.1537 72.359L66.1598 72.3627C68.0482 73.5085 70.5101 72.8761 71.6707 70.7752L71.6835 70.752L73.7734 67.0847C74.3319 66.0693 74.489 64.8489 74.198 63.7C73.9065 62.5489 73.1991 61.5984 72.2686 61.0348C70.4044 59.9054 69.0733 58.0596 68.5341 55.9303C67.9959 53.805 68.281 51.5387 69.338 49.6241C70.029 48.3561 71.0347 47.2911 72.2626 46.5482C74.1955 45.3527 74.9274 42.6548 73.7596 40.5001C73.7222 40.4312 73.689 40.3603 73.6601 40.2878L71.7834 36.8585C70.6309 34.7522 68.1725 34.1097 66.2808 35.2446C64.4305 36.3876 62.2097 36.7172 60.1149 36.1445C58.0207 35.5719 56.2601 34.1556 55.1952 32.2464C54.5054 31.0209 54.1385 29.633 54.1245 28.2219C54.1243 28.1972 54.1245 28.1724 54.1252 28.1477C54.1586 26.9235 53.7184 25.7562 52.9354 24.908Z" fill="#0F224A"/>
<path id="Ellipse_737 (Stroke)" fill-rule="evenodd" clip-rule="evenodd" d="M48.0486 47.0244C44.3038 47.0244 41.2681 50.0601 41.2681 53.8049C41.2681 57.5497 44.3038 60.5854 48.0486 60.5854C51.7933 60.5854 54.829 57.5497 54.829 53.8049C54.829 50.0601 51.7933 47.0244 48.0486 47.0244ZM37.2681 53.8049C37.2681 47.851 42.0947 43.0244 48.0486 43.0244C54.0025 43.0244 58.829 47.851 58.829 53.8049C58.829 59.7588 54.0025 64.5854 48.0486 64.5854C42.0947 64.5854 37.2681 59.7588 37.2681 53.8049Z" fill="#0F224A"/>
</g>
</g>
<path id="Ellipse 166 (Stroke)" fill-rule="evenodd" clip-rule="evenodd" d="M49.0244 8C33.4801 8 19.7572 16.1391 11.6762 28.5544C11.0736 29.4802 9.8347 29.7422 8.90896 29.1396C7.98322 28.5371 7.72123 27.2981 8.32378 26.3724C17.0924 12.9007 32.0371 4 49.0244 4C66.0117 4 80.9564 12.9007 89.725 26.3724C90.3275 27.2981 90.0655 28.5371 89.1398 29.1396C88.2141 29.7422 86.9751 29.4802 86.3726 28.5544C78.2915 16.1391 64.5686 8 49.0244 8Z" fill="#0F224A"/>
<path id="Vector 545 (Stroke)" fill-rule="evenodd" clip-rule="evenodd" d="M78.2439 28.439C78.2439 27.3344 79.1393 26.439 80.2439 26.439L88 26.439L88 18.6829C88 17.5783 88.8954 16.6829 90 16.6829C91.1046 16.6829 92 17.5783 92 18.6829L92 27.439C92 29.0958 90.6568 30.439 89 30.439L80.2439 30.439C79.1393 30.439 78.2439 29.5435 78.2439 28.439Z" fill="#0F224A"/>
</g>
</g>
</svg>
