<svg width="96" height="96" viewBox="0 0 96 96" fill="none" xmlns="http://www.w3.org/2000/svg">
<g id="icon-money-plus">
<g id="Group 224">
<g id="Group 221">
<path id="Subtract" fill-rule="evenodd" clip-rule="evenodd" d="M16 43.35C16 27.1404 29.1404 14 45.35 14C61.5596 14 74.7 27.1404 74.7 43.35C74.7 47.7617 73.7266 51.9461 71.9829 55.7C73.4135 55.7026 74.805 55.8716 76.1391 56.1887C77.7889 52.2369 78.7 47.8999 78.7 43.35C78.7 24.9313 63.7687 10 45.35 10C26.9313 10 12 24.9313 12 43.35C12 61.7687 26.9313 76.7 45.35 76.7C48.3383 76.7 51.2347 76.307 53.9905 75.5698C53.9306 74.9713 53.8999 74.3643 53.8999 73.75C53.8999 72.9495 53.952 72.1611 54.053 71.3882C51.3031 72.2408 48.3802 72.7 45.35 72.7C29.1404 72.7 16 59.5596 16 43.35ZM47.3501 23.0438V25.5003C52.1418 26.3797 55.9 30.3583 55.9 35.3344C55.9 36.439 55.0046 37.3344 53.9 37.3344C52.7955 37.3344 51.9 36.439 51.9 35.3344C51.9 32.1317 49.0911 29.3188 45.35 29.3188C41.609 29.3188 38.8 32.1317 38.8 35.3344C38.8 38.5371 41.609 41.35 45.35 41.35C51.0531 41.35 55.9 45.7146 55.9 51.3657C55.9 56.3418 52.1418 60.3204 47.3501 61.1997V63.6563C47.3501 64.7608 46.4547 65.6563 45.3501 65.6563C44.2455 65.6563 43.3501 64.7608 43.3501 63.6563V61.1998C38.5584 60.3204 34.8 56.3418 34.8 51.3657C34.8 50.2611 35.6955 49.3657 36.8 49.3657C37.9046 49.3657 38.8 50.2611 38.8 51.3657C38.8 54.5659 41.6048 57.377 45.3415 57.3813L45.3501 57.3813L45.3587 57.3813C49.0954 57.377 51.9 54.5659 51.9 51.3657C51.9 48.163 49.0911 45.35 45.35 45.35C39.647 45.35 34.8 40.9855 34.8 35.3344C34.8 30.3582 38.5584 26.3797 43.3501 25.5003V23.0438C43.3501 21.9392 44.2455 21.0438 45.3501 21.0438C46.4547 21.0438 47.3501 21.9392 47.3501 23.0438Z" fill="#0F224A"/>
</g>
<path id="Ellipse 181 (Stroke)" fill-rule="evenodd" clip-rule="evenodd" d="M71.95 84C77.6109 84 82.2 79.4109 82.2 73.75C82.2 68.0891 77.6109 63.5 71.95 63.5C66.289 63.5 61.7 68.0891 61.7 73.75C61.7 79.4109 66.289 84 71.95 84ZM71.95 88C79.82 88 86.2 81.6201 86.2 73.75C86.2 65.8799 79.82 59.5 71.95 59.5C64.0799 59.5 57.7 65.8799 57.7 73.75C57.7 81.6201 64.0799 88 71.95 88Z" fill="#0F224A"/>
<path id="Vector 568 (Stroke)" fill-rule="evenodd" clip-rule="evenodd" d="M71.95 67C73.0545 67 73.95 67.8954 73.95 69V71.75H76.7C77.8045 71.75 78.7 72.6454 78.7 73.75C78.7 74.8546 77.8045 75.75 76.7 75.75H73.95V78.5C73.95 79.6046 73.0545 80.5 71.95 80.5C70.8454 80.5 69.95 79.6046 69.95 78.5V75.75H67.2C66.0954 75.75 65.2 74.8546 65.2 73.75C65.2 72.6454 66.0954 71.75 67.2 71.75H69.95V69C69.95 67.8954 70.8454 67 71.95 67Z" fill="#0F224A"/>
</g>
</g>
</svg>
