<?xml version="1.0" encoding="utf-8"?>
<!-- Generator: Adobe Illustrator 24.0.2, SVG Export Plug-In . SVG Version: 6.00 Build 0)  -->
<svg version="1.1" id="Camada_1" xmlns="http://www.w3.org/2000/svg" xmlns:xlink="http://www.w3.org/1999/xlink" x="0px" y="0px"
	 viewBox="0 0 200 200" style="enable-background:new 0 0 200 200;" xml:space="preserve">
<style type="text/css">
	.st0{fill:#FBECE5;}
	.st1{fill:#004C93;}
</style>
<path class="st0" d="M197.7,33.3c0-18.4-12.5-30.9-30.8-31c-44.6,0-89.1,0.3-133.7-0.1c-16.8-0.3-30.7,13.1-31,30c0,0.3,0,0.6,0,0.9
	c0.5,44.4,0.6,88.8,0,133.2c-0.2,17.3,13.2,32.1,31.3,31.5c22.1-0.7,44.2-0.2,66.3-0.2c22.3,0,44.6-0.4,66.8,0.2
	c16.3,0.4,31.2-11.9,31.1-31.3C197.6,122.1,197.8,77.7,197.7,33.3z"/>
<title>libras</title>
<path class="st1" d="M199.9,31.8c0-18.8-12.8-31.6-31.5-31.7C122.9,0.1,77.3,0.4,31.7,0C14.5-0.3,0.3,13.4,0.1,30.7
	c0,0.3,0,0.6,0,0.9C0.6,77,0.7,122.4,0,167.8c-0.3,17.7,13.5,32.8,32,32.2c22.6-0.7,45.2-0.2,67.8-0.2c22.8,0,45.6-0.4,68.3,0.2
	c16.6,0.4,31.9-12.2,31.8-32C199.8,122.6,200,77.2,199.9,31.8z M38.9,152.9c-7.5-4.4-11.6-11.3-14.2-19.9c0.5-0.7,1.1-1.5,1.7-2.3
	c0.8,0.6,2.1,1.1,2.4,2c2.3,7,5.9,13.1,12.3,17.2c0.7,0.4,0.7,1.9,1,2.9C41,152.8,39.7,153.4,38.9,152.9L38.9,152.9z M47.8,148.3
	c-7.4-3.7-12.1-9.9-15.1-17.4c-0.4-1,0.4-2.4,0.8-4.8c1.6,2,2.5,2.7,2.9,3.7c2.8,6.5,6.9,11.8,13.2,15.3c0.8,0.5,1.1,2,1.6,3
	C50.2,148.1,48.7,148.8,47.8,148.3L47.8,148.3z M45.7,129.6c-4.2-9.1-7.2-18.7-9-28.6c-1.8-9-5.4-17.6-10.7-25.1
	C20.7,68,15.7,59.8,10.5,51.8C9,49.5,8.3,47.1,11,45.1s5-0.9,7,1.4c6,7.2,12,14.5,18.2,21.6c1.5,1.8,3.8,2.9,5.8,4.3l1.5-1.2
	c-0.5-2.3-0.8-4.8-1.7-7c-4.5-10.7-9.3-21.5-14-32.2c-0.9-2-2.2-4.1-2.2-6.1s1.3-4.8,2.8-5.5s4.9,0.3,5.8,1.6
	c2.8,4.1,4.9,8.8,7.2,13.2c3.8,7.3,7.5,14.6,11.3,21.9c1,1.6,2.1,3.1,3.4,4.4l1.3-0.5c0-1.9,0.1-3.8,0-5.7c-1-13.4-2-26.8-3-40.2
	c0-0.7-0.1-1.4-0.2-2c-0.5-3.8,1-6.5,4.7-7.1s6,1.9,6.6,5.4c1.8,9.9,3.4,19.8,5,29.7c0.8,4.8,1.3,9.7,2.2,14.4
	c0.3,1.7,1.4,3.2,2.1,4.8l1.4,0.2c0.9-1.6,1.5-3.2,2.1-4.9c2.7-13.1,5.3-26.3,7.8-39.4c0.6-3.4,1.7-5.9,5.7-5.4s5.2,3,5,6.7
	C96,34,95.3,50.4,94.3,66.8c-0.3,1.7-1.3,3.1-2.8,3.8c-6.3,2.1-12.7,3.8-19.2,5.2c-6.3,1.2-10.6,4-11.7,8.7
	c-1.5,5.6,1.2,11.5,6.5,14c4.3,2.1,8.9,3.5,13.7,4.2c4.6,0.7,9.3,0.2,14.9,0.2c-1.8,3.5-3,6.6-4.8,9.3c-5.6,8-11.3,15.8-17.1,23.7
	c-0.4,0.7-1,1.3-1.7,1.8C64.5,141.6,49.4,137.9,45.7,129.6L45.7,129.6z M172.4,94.4c-2.5,10.5-6.6,20.7-9.7,31
	c-1.6,5.3-3.2,10.7-3.5,16.1c-0.6,10.2,0.1,20.5-0.4,30.8c-0.2,3.9,1.4,10.2-5,10.1c-5.8-0.1-4.5-6.1-5-9.9c-1.1-8.3-1.8-16.7-3-25
	c-0.2-1.6-2.1-3-3.1-4.5c-0.9,1.4-2.4,2.8-2.7,4.4c-2.4,12.5-4.6,25-6.9,37.6c0,0.7-0.1,1.3-0.3,2c-1.1,3.2-1.4,7.6-6.4,6.8
	c-5-0.8-4.3-4.6-4-8.2c1.3-11.9,2.7-23.7,3.9-35.5c0.1-2.1,0.1-4.2,0-6.3l-1.8-0.4c-1.1,1.6-2.4,3.1-3.3,4.8
	c-6.8,12-13.6,23.9-20.2,36c-1.9,3.6-4.1,5.8-8.3,4.4c-3.1-1.1-3.9-5.3-2-9.6c5.7-12.7,11.6-25.3,17.2-38c0.9-2.1,1.2-4.4,1.7-6.6
	l-1.6-0.9c-1.7,1.1-3.3,2.4-4.8,3.7c-9.1,9.1-18.2,18.3-27.3,27.6c-2.4,2.4-4.7,4.7-8.1,1.8c-3.5-3-2.4-6,0-9.2
	c9.1-11.9,18.3-23.6,26.8-35.9c3.9-5.8,7.1-12.1,9.6-18.7c2.3-6-0.2-8.8-6.6-8.8c-6,0-12.1,0.7-18,0.1c-3.4-0.5-6.7-1.8-9.5-3.9
	c-2.7-1.9-1.9-5.1,1.4-5.3c18.5-1.3,33.3-12.3,50-18.4c6.1-2.1,12.5-3.4,18.9-3.8c2.9-0.2,6.2,1.8,8.9,3.6c6,4,11.6,8.5,17.4,12.6
	C172.3,82.8,173.7,88.8,172.4,94.4z M180.1,103.2c-0.2,0.7-1.7,1.1-2.5,1.7c-0.4-1-1.3-2-1.1-2.9c1.9-7.2,1.8-14.2-1.4-21
	c-0.4-0.7,0.4-2,0.7-3c1,0.6,2.7,1,3,1.9c1.4,4.6,2.5,9.2,3.5,12.7C181.3,97.1,180.9,100.2,180.1,103.2z M188.2,105
	c-0.1,0.8-1.9,1.3-2.9,1.9c-0.3-1-1.1-2.2-0.9-2.9c2.6-7.2,3.2-14.3,0.6-21.6c-0.3-0.7,0.4-1.8,0.7-2.6l1.8-0.5
	c0.9,2.3,2.7,4.7,2.6,6.9C189.8,92.5,189.1,98.8,188.2,105L188.2,105z"/>
</svg>
