<svg xmlns="http://www.w3.org/2000/svg" viewBox="0 0 2590 1440"><defs><style>.cls-1{fill:#776cba;}</style></defs><g id="Camada_7" data-name="Camada 7"><path class="cls-1" d="M0,657.05V850.86H119v89c-29,1.39-58.15,2.91-92.71,4.71v88.89H0V1440H10422.5V848.11h-93.83V752.76h-97.06V659.84h-92V750h-96V659.84H9853.9V844.61H9665.34V754.49H9475V663.13H9191.86v182h-189v-90.7h-92.26v187h91v91.78h-187V754.3h-93.08v94.54H8627v184.62h-96V848.92h-96.09V661.65H8250.41c-1.64,31.1-3.16,59.79-4.66,88.25h-95v-88h-93v90.74h-92.36V663.09H7773.46v87H7584V567.32h-93.26V754.38H7398q-1.5,47.49-3.05,95H7207.5v-95H7112v-189h-91.95V755.73H6828.84V939.68h-94.72V848.92h-92.38v94.45H6452.67v90.22h-96V943.45h-96V850.57h-90.15c-1.61,30.85-3.12,59.58-4.63,88.58h-94.3v-187h-90c-1.72-32-3.26-60.7-5.08-94.55h-92.67v-92.2h-96v91.13H5603.12c-1.46-30.9-2.82-59.52-4.2-88.81H5221.39V848.92h-92.24v90.23H4938.61V754.38H4465.19v89.76H4280.12V661.36l88.42-4.83V565.34H4184v374h-97.11V752.65h-92V567.78h-97.29v92.1h-91.71V844.26H3709V756.55H3519.74v87.72h-379.6V662h-92.87v92.47H2955v95.51h92.66v91.86H2856.82V846.28h-282V659.84h-92.68V750.2H2200.57V661.52h91V565.3H2009.42V846.85H1916v91.73h-97.14V754.38H1722.6v91h-93.17V754.42h-92.49V938.7H1345.62V662.06H1250.9V844H1066V661.13l88-4.34v-88H966.69v91.63H873.3v92.37l-92.66,1.64V850.3H683.85v89.38H589.22v-94H494.75V661.38l-94.61-5.09V565.34H308v96.25H210.54V750.1H20.77V657.05ZM9952.67,945.5h89.83V850.43h94.63V940.2h187.2v93.92H9952.67Zm-380.42-2.24h90.23v90.49h-90.23ZM9478,851.67h92.76v90.11l-92.76,0Zm-92,91.55h90.49v90.24H9386ZM9196,1041h88.68v88.15H9196ZM8154.19,943.26h90.23v90.49h-90.23Zm-91.46-91.74h90v90.26h-90Zm-189.31-97.36h90.5V938.72h-90.5Zm-7.37,285.5v88.71H7683.49v-88.71ZM7396.24,851c124.52.07,249.1.07,376.43.07v87.5H7396.24Zm-373.85-2h87.17v184.39h-87.17ZM6643.86,1134.1h87.92V1223h-87.92ZM5792.8,757.41h93.05v89.32h89.59v92.71H5792.8Zm-.75,283h89.86v87.09h-89.86ZM5604,756h87.87V940.54H5604Zm-191.35,1.26h90.49v90.23h-90.49ZM5318.36,849h92.8v92.71h-92.8Zm-92,94.21h90.49v90.23h-90.49Zm-472.46-92.86h88.16v88.16h-88.16Zm-188.94,1h87.89v88.83H4565Zm-283.89,95.5h90v86.3h-90ZM3902.86,754.15h90.49v90.23h-90.49ZM3431,943.65h86.3v90H3431Zm-197.28-.37v90.47H3049.16V943.28Zm-561.42,2.63h89.86V1033h-89.86Zm-379.15-94.28h184.74v90.1H2293.17Zm-92,91.59h90.49v90.24h-90.49ZM1726,1038h90v90.29h-90Zm-91.74-91.95h90.25v90.46h-90.25ZM965.05,754.21v90.46H874.8V754.21Zm-560.6,285.43h87.88v184.51H404.45ZM213.35,849.48h91c1.76-33.9,3.24-62.59,4.84-93.47h88.6V941.73H213.35Zm-93,91.87,91.55,1.85v90H120.31Z"/><path class="cls-1" d="M1820.33,754.38V661H1728.4V565.3h186.46l-1.44-1.54V752.84h-94.54Z"/><path class="cls-1" d="M1064,377.84V283.69h89.88v182.8H971.56V377.84Z"/><path class="cls-1" d="M2007.82,374.84,2008,565.3l1.44-1.54h-96l1.44,1.54v-189h94.45Z"/><path class="cls-1" d="M1536.94,752.93h-91.82V660h91.5l-1.48-1.49.3,96Z"/><path class="cls-1" d="M780.64,752.93H688.9V662.46h90.24q0,46.08,0,92Z"/><path class="cls-1" d="M2386.13,565.3h94.54v94.54l1.44-1.54h-94.54V563.76Z"/><path class="cls-1" d="M1536.62,660V568.22h90.49v90.23h-92Z"/><path class="cls-1" d="M2293,565.3V473.56h93.12V565.3l1.44-1.54h-96Z"/><path class="cls-1" d="M1255.26,472.35h87.89v88.82h-87.89Z"/><path class="cls-1" d="M308,563.86H216.21V473.39h90.25v92Z"/><path class="cls-1" d="M2009.31,376.34V284.61h90.49v90.23h-92Z"/><path class="cls-1" d="M1256.58,282.76h87.09v89.86h-87.09Z"/><path class="cls-1" d="M500,282.88h87.63v90H500Z"/><path class="cls-1" d="M2671.37,280.26h-91.73V189.77h90.23v92Z"/><path class="cls-1" d="M26.25,188.73h87.93v88.84H26.25Z"/></g></svg>