<svg width="130" height="130" viewBox="0 0 130 130" fill="none" xmlns="http://www.w3.org/2000/svg">
<rect x="4" y="4" width="2" height="2" fill="#80BBFF"/>
<rect x="14" y="4" width="2" height="2" fill="#80BBFF"/>
<rect x="24" y="4" width="2" height="2" fill="#80BBFF"/>
<rect x="34" y="4" width="2" height="2" fill="#80BBFF"/>
<rect x="44" y="4" width="2" height="2" fill="#80BBFF"/>
<rect x="54" y="4" width="2" height="2" fill="#80BBFF"/>
<rect x="64" y="4" width="2" height="2" fill="#80BBFF"/>
<rect x="74" y="4" width="2" height="2" fill="#80BBFF"/>
<rect x="84" y="4" width="2" height="2" fill="#80BBFF"/>
<rect x="94" y="4" width="2" height="2" fill="#80BBFF"/>
<rect x="104" y="4" width="2" height="2" fill="#80BBFF"/>
<rect x="114" y="4" width="2" height="2" fill="#80BBFF"/>
<rect x="124" y="4" width="2" height="2" fill="#80BBFF"/>
<rect x="4" y="14" width="2" height="2" fill="#80BBFF"/>
<rect x="14" y="14" width="2" height="2" fill="#80BBFF"/>
<rect x="24" y="14" width="2" height="2" fill="#80BBFF"/>
<rect x="34" y="14" width="2" height="2" fill="#80BBFF"/>
<rect x="44" y="14" width="2" height="2" fill="#80BBFF"/>
<rect x="54" y="14" width="2" height="2" fill="#80BBFF"/>
<rect x="64" y="14" width="2" height="2" fill="#80BBFF"/>
<rect x="74" y="14" width="2" height="2" fill="#80BBFF"/>
<rect x="84" y="14" width="2" height="2" fill="#80BBFF"/>
<rect x="94" y="14" width="2" height="2" fill="#80BBFF"/>
<rect x="104" y="14" width="2" height="2" fill="#80BBFF"/>
<rect x="114" y="14" width="2" height="2" fill="#80BBFF"/>
<rect x="124" y="14" width="2" height="2" fill="#80BBFF"/>
<rect x="4" y="24" width="2" height="2" fill="#80BBFF"/>
<rect x="14" y="24" width="2" height="2" fill="#80BBFF"/>
<rect x="24" y="24" width="2" height="2" fill="#80BBFF"/>
<rect x="34" y="24" width="2" height="2" fill="#80BBFF"/>
<rect x="44" y="24" width="2" height="2" fill="#80BBFF"/>
<rect x="54" y="24" width="2" height="2" fill="#80BBFF"/>
<rect x="64" y="24" width="2" height="2" fill="#80BBFF"/>
<rect x="74" y="24" width="2" height="2" fill="#80BBFF"/>
<rect x="84" y="24" width="2" height="2" fill="#80BBFF"/>
<rect x="94" y="24" width="2" height="2" fill="#80BBFF"/>
<rect x="104" y="24" width="2" height="2" fill="#80BBFF"/>
<rect x="114" y="24" width="2" height="2" fill="#80BBFF"/>
<rect x="124" y="24" width="2" height="2" fill="#80BBFF"/>
<rect x="4" y="34" width="2" height="2" fill="#80BBFF"/>
<rect x="14" y="34" width="2" height="2" fill="#80BBFF"/>
<rect x="24" y="34" width="2" height="2" fill="#80BBFF"/>
<rect x="34" y="34" width="2" height="2" fill="#80BBFF"/>
<rect x="44" y="34" width="2" height="2" fill="#80BBFF"/>
<rect x="54" y="34" width="2" height="2" fill="#80BBFF"/>
<rect x="64" y="34" width="2" height="2" fill="#80BBFF"/>
<rect x="74" y="34" width="2" height="2" fill="#80BBFF"/>
<rect x="84" y="34" width="2" height="2" fill="#80BBFF"/>
<rect x="94" y="34" width="2" height="2" fill="#80BBFF"/>
<rect x="104" y="34" width="2" height="2" fill="#80BBFF"/>
<rect x="114" y="34" width="2" height="2" fill="#80BBFF"/>
<rect x="124" y="34" width="2" height="2" fill="#80BBFF"/>
<rect x="4" y="44" width="2" height="2" fill="#80BBFF"/>
<rect x="14" y="44" width="2" height="2" fill="#80BBFF"/>
<rect x="24" y="44" width="2" height="2" fill="#80BBFF"/>
<rect x="34" y="44" width="2" height="2" fill="#80BBFF"/>
<rect x="44" y="44" width="2" height="2" fill="#80BBFF"/>
<rect x="54" y="44" width="2" height="2" fill="#80BBFF"/>
<rect x="64" y="44" width="2" height="2" fill="#80BBFF"/>
<rect x="74" y="44" width="2" height="2" fill="#80BBFF"/>
<rect x="84" y="44" width="2" height="2" fill="#80BBFF"/>
<rect x="94" y="44" width="2" height="2" fill="#80BBFF"/>
<rect x="104" y="44" width="2" height="2" fill="#80BBFF"/>
<rect x="114" y="44" width="2" height="2" fill="#80BBFF"/>
<rect x="124" y="44" width="2" height="2" fill="#80BBFF"/>
<rect x="4" y="54.0001" width="2" height="2" fill="#80BBFF"/>
<rect x="14" y="54.0001" width="2" height="2" fill="#80BBFF"/>
<rect x="24" y="54.0001" width="2" height="2" fill="#80BBFF"/>
<rect x="34" y="54.0001" width="2" height="2" fill="#80BBFF"/>
<rect x="44" y="54.0001" width="2" height="2" fill="#80BBFF"/>
<rect x="54" y="54.0001" width="2" height="2" fill="#80BBFF"/>
<rect x="64" y="54.0001" width="2" height="2" fill="#80BBFF"/>
<rect x="74" y="54.0001" width="2" height="2" fill="#80BBFF"/>
<rect x="84" y="54.0001" width="2" height="2" fill="#80BBFF"/>
<rect x="94" y="54.0001" width="2" height="2" fill="#80BBFF"/>
<rect x="104" y="54.0001" width="2" height="2" fill="#80BBFF"/>
<rect x="114" y="54.0001" width="2" height="2" fill="#80BBFF"/>
<rect x="124" y="54.0001" width="2" height="2" fill="#80BBFF"/>
<rect x="4" y="64" width="2" height="2" fill="#80BBFF"/>
<rect x="14" y="64" width="2" height="2" fill="#80BBFF"/>
<rect x="24" y="64" width="2" height="2" fill="#80BBFF"/>
<rect x="34" y="64" width="2" height="2" fill="#80BBFF"/>
<rect x="44" y="64" width="2" height="2" fill="#80BBFF"/>
<rect x="54" y="64" width="2" height="2" fill="#80BBFF"/>
<rect x="64" y="64" width="2" height="2" fill="#80BBFF"/>
<rect x="74" y="64" width="2" height="2" fill="#80BBFF"/>
<rect x="84" y="64" width="2" height="2" fill="#80BBFF"/>
<rect x="94" y="64" width="2" height="2" fill="#80BBFF"/>
<rect x="104" y="64" width="2" height="2" fill="#80BBFF"/>
<rect x="114" y="64" width="2" height="2" fill="#80BBFF"/>
<rect x="124" y="64" width="2" height="2" fill="#80BBFF"/>
<rect x="4" y="74" width="2" height="2" fill="#80BBFF"/>
<rect x="14" y="74" width="2" height="2" fill="#80BBFF"/>
<rect x="24" y="74" width="2" height="2" fill="#80BBFF"/>
<rect x="34" y="74" width="2" height="2" fill="#80BBFF"/>
<rect x="44" y="74" width="2" height="2" fill="#80BBFF"/>
<rect x="54" y="74" width="2" height="2" fill="#80BBFF"/>
<rect x="64" y="74" width="2" height="2" fill="#80BBFF"/>
<rect x="74" y="74" width="2" height="2" fill="#80BBFF"/>
<rect x="84" y="74" width="2" height="2" fill="#80BBFF"/>
<rect x="94" y="74" width="2" height="2" fill="#80BBFF"/>
<rect x="104" y="74" width="2" height="2" fill="#80BBFF"/>
<rect x="114" y="74" width="2" height="2" fill="#80BBFF"/>
<rect x="124" y="74" width="2" height="2" fill="#80BBFF"/>
<rect x="4" y="84" width="2" height="2" fill="#80BBFF"/>
<rect x="14" y="84" width="2" height="2" fill="#80BBFF"/>
<rect x="24" y="84" width="2" height="2" fill="#80BBFF"/>
<rect x="34" y="84" width="2" height="2" fill="#80BBFF"/>
<rect x="44" y="84" width="2" height="2" fill="#80BBFF"/>
<rect x="54" y="84" width="2" height="2" fill="#80BBFF"/>
<rect x="64" y="84" width="2" height="2" fill="#80BBFF"/>
<rect x="74" y="84" width="2" height="2" fill="#80BBFF"/>
<rect x="84" y="84" width="2" height="2" fill="#80BBFF"/>
<rect x="94" y="84" width="2" height="2" fill="#80BBFF"/>
<rect x="104" y="84" width="2" height="2" fill="#80BBFF"/>
<rect x="114" y="84" width="2" height="2" fill="#80BBFF"/>
<rect x="124" y="84" width="2" height="2" fill="#80BBFF"/>
<rect x="4" y="94" width="2" height="2" fill="#80BBFF"/>
<rect x="14" y="94" width="2" height="2" fill="#80BBFF"/>
<rect x="24" y="94" width="2" height="2" fill="#80BBFF"/>
<rect x="34" y="94" width="2" height="2" fill="#80BBFF"/>
<rect x="44" y="94" width="2" height="2" fill="#80BBFF"/>
<rect x="54" y="94" width="2" height="2" fill="#80BBFF"/>
<rect x="64" y="94" width="2" height="2" fill="#80BBFF"/>
<rect x="74" y="94" width="2" height="2" fill="#80BBFF"/>
<rect x="84" y="94" width="2" height="2" fill="#80BBFF"/>
<rect x="94" y="94" width="2" height="2" fill="#80BBFF"/>
<rect x="104" y="94" width="2" height="2" fill="#80BBFF"/>
<rect x="114" y="94" width="2" height="2" fill="#80BBFF"/>
<rect x="124" y="94" width="2" height="2" fill="#80BBFF"/>
<rect x="4" y="104" width="2" height="2" fill="#80BBFF"/>
<rect x="14" y="104" width="2" height="2" fill="#80BBFF"/>
<rect x="24" y="104" width="2" height="2" fill="#80BBFF"/>
<rect x="34" y="104" width="2" height="2" fill="#80BBFF"/>
<rect x="44" y="104" width="2" height="2" fill="#80BBFF"/>
<rect x="54" y="104" width="2" height="2" fill="#80BBFF"/>
<rect x="64" y="104" width="2" height="2" fill="#80BBFF"/>
<rect x="74" y="104" width="2" height="2" fill="#80BBFF"/>
<rect x="84" y="104" width="2" height="2" fill="#80BBFF"/>
<rect x="94" y="104" width="2" height="2" fill="#80BBFF"/>
<rect x="104" y="104" width="2" height="2" fill="#80BBFF"/>
<rect x="114" y="104" width="2" height="2" fill="#80BBFF"/>
<rect x="124" y="104" width="2" height="2" fill="#80BBFF"/>
<rect x="4" y="114" width="2" height="2" fill="#80BBFF"/>
<rect x="14" y="114" width="2" height="2" fill="#80BBFF"/>
<rect x="24" y="114" width="2" height="2" fill="#80BBFF"/>
<rect x="34" y="114" width="2" height="2" fill="#80BBFF"/>
<rect x="44" y="114" width="2" height="2" fill="#80BBFF"/>
<rect x="54" y="114" width="2" height="2" fill="#80BBFF"/>
<rect x="64" y="114" width="2" height="2" fill="#80BBFF"/>
<rect x="74" y="114" width="2" height="2" fill="#80BBFF"/>
<rect x="84" y="114" width="2" height="2" fill="#80BBFF"/>
<rect x="94" y="114" width="2" height="2" fill="#80BBFF"/>
<rect x="104" y="114" width="2" height="2" fill="#80BBFF"/>
<rect x="114" y="114" width="2" height="2" fill="#80BBFF"/>
<rect x="124" y="114" width="2" height="2" fill="#80BBFF"/>
<rect x="4" y="124" width="2" height="2" fill="#80BBFF"/>
<rect x="14" y="124" width="2" height="2" fill="#80BBFF"/>
<rect x="24" y="124" width="2" height="2" fill="#80BBFF"/>
<rect x="34" y="124" width="2" height="2" fill="#80BBFF"/>
<rect x="44" y="124" width="2" height="2" fill="#80BBFF"/>
<rect x="54" y="124" width="2" height="2" fill="#80BBFF"/>
<rect x="64" y="124" width="2" height="2" fill="#80BBFF"/>
<rect x="74" y="124" width="2" height="2" fill="#80BBFF"/>
<rect x="84" y="124" width="2" height="2" fill="#80BBFF"/>
<rect x="94" y="124" width="2" height="2" fill="#80BBFF"/>
<rect x="104" y="124" width="2" height="2" fill="#80BBFF"/>
<rect x="114" y="124" width="2" height="2" fill="#80BBFF"/>
<rect x="124" y="124" width="2" height="2" fill="#80BBFF"/>
</svg>
