<svg width="96" height="96" viewBox="0 0 96 96" fill="none" xmlns="http://www.w3.org/2000/svg">
<g id="icon-quote-blue-bright">
<rect id="Rectangle" width="96" height="96" fill="white" fill-opacity="0.01"/>
<path id="&#226;&#128;&#156;" d="M86 65.9459C86 70.4928 84.5259 74.3052 81.5778 77.3831C78.6982 80.461 75.0645 82 70.6766 82C65.8773 82 61.8665 79.9714 58.6441 75.9141C55.4217 71.787 53.8106 66.5755 53.8106 60.2798C53.8106 55.593 54.7361 50.6963 56.5873 45.5898C58.507 40.4833 61.7979 34.2226 66.4601 26.8076C68.9283 22.8203 70.9166 20.0223 72.4249 18.4134C73.9332 16.8045 75.3045 16 76.5386 16C78.5954 16 80.3437 16.3498 81.7835 17.0493C83.2233 17.7488 83.9432 18.5533 83.9432 19.4626C83.9432 20.0922 83.2576 21.3164 81.8863 23.1351C80.8579 24.5342 80.0695 25.6884 79.521 26.5978C76.9156 30.725 74.8245 34.5723 73.2476 38.1399C71.6707 41.6375 70.8823 44.1558 70.8823 45.6947C70.8823 47.7234 72.0478 49.2273 74.3789 50.2067C74.6531 50.3466 74.8245 50.4165 74.8931 50.4165C78.7325 51.9555 81.5435 53.9841 83.3261 56.5024C85.1087 58.9507 86 62.0986 86 65.9459ZM42.1894 65.9459C42.1894 70.4928 40.7154 74.3052 37.7673 77.3831C34.8191 80.461 31.1168 82 26.6604 82C21.8611 82 17.8845 79.9714 14.7307 75.9141C11.5769 71.787 10 66.5755 10 60.2798C10 55.593 10.9256 50.6963 12.7767 45.5898C14.6964 40.4833 17.9874 34.2226 22.6495 26.8076C25.1177 22.8203 27.106 20.0223 28.6143 18.4134C30.1227 16.8045 31.4939 16 32.728 16C34.7848 16 36.5332 16.3498 37.9729 17.0493C39.4127 17.7488 40.1326 18.5533 40.1326 19.4626C40.1326 20.0922 39.447 21.3164 38.0758 23.1351C37.0474 24.5342 36.2589 25.6884 35.7104 26.5978C33.1051 30.725 31.014 34.5723 29.4371 38.1399C27.8602 41.6375 27.0717 44.1558 27.0717 45.6947C27.0717 47.7234 28.2373 49.2273 30.5683 50.2067C30.8426 50.3466 31.014 50.4165 31.0825 50.4165C34.922 51.9555 37.733 53.9841 39.5156 56.5024C41.2982 58.9507 42.1894 62.0986 42.1894 65.9459Z" fill="#3894FF"/>
</g>
</svg>
