<?xml version="1.0" encoding="utf-8"?>
<!-- Generator: Adobe Illustrator 25.0.0, SVG Export Plug-In . SVG Version: 6.00 Build 0)  -->
<svg version="1.1" id="Layer_1" xmlns="http://www.w3.org/2000/svg" xmlns:xlink="http://www.w3.org/1999/xlink" x="0px" y="0px"
	 viewBox="0 0 111.63 130.45" style="enable-background:new 0 0 111.63 130.45;" xml:space="preserve">
<style type="text/css">
	.st0{fill:#3A8DDE;}
	.st1{fill:#00AE42;}
	.st2{fill:#006E43;}
	.st3{fill:#0055B8;}
</style>
<g>
	<polygon class="st0" points="72.1,70.47 72.1,55.63 36.05,34.72 36.05,49.65 	"/>
	<polygon class="st1" points="72.1,47.29 72.1,32.44 36.05,11.54 36.05,26.47 	"/>
	<polygon class="st2" points="0,47.29 0,32.44 36.05,11.54 36.05,26.47 	"/>
	<polygon class="st1" points="32.43,102.23 19.58,109.66 55.59,130.45 68.44,123.03 	"/>
	<polygon class="st2" points="19.58,67.52 19.58,109.66 32.43,102.23 32.43,60.09 	"/>
	<polygon class="st3" points="0,55.63 0,55.63 12.85,63.05 36.05,49.65 36.05,34.72 	"/>
	<polygon class="st0" points="12.86,63.05 12.86,105.19 0,97.77 0,55.63 	"/>
	<polygon class="st1" points="39.54,59.97 39.54,74.82 75.59,95.72 75.59,80.79 	"/>
	<polygon class="st0" points="39.54,83.16 39.54,98 75.59,118.91 75.59,103.98 	"/>
	<polygon class="st3" points="111.63,83.16 111.63,98 75.59,118.91 75.59,103.98 	"/>
	<polygon class="st0" points="79.2,28.21 92.06,20.79 56.05,0 43.2,7.42 	"/>
	<polygon class="st3" points="92.06,62.93 92.06,20.79 79.2,28.21 79.2,70.35 	"/>
	<polygon class="st2" points="111.63,74.82 111.63,74.82 98.78,67.39 75.59,80.79 75.59,95.72 	"/>
	<polygon class="st1" points="98.78,67.39 98.78,25.25 111.63,32.67 111.63,74.82 	"/>
</g>
</svg>
